<svg width="590" height="272" fill="none" xmlns="http://www.w3.org/2000/svg"><path d="M76.676 60.053c0 13.925-11.497 22.085-33.103 22.085H.12V1.608h41.147c21.147 0 31.497 8.63 31.497 21.057 0 7.712-3.913 13.925-10.809 17.49 9.082 3.217 14.71 10.13 14.71 19.909l.011-.011zM22.644 18.06v15.533h15.629c7.584 0 11.497-2.648 11.497-7.822 0-5.174-3.913-7.711-11.498-7.711H22.645zm31.038 39.466c0-5.524-4.142-8.171-11.956-8.171H22.644v16.342h19.082c7.814 0 11.956-2.647 11.956-8.17zm50.808-37.848H79.78V1.608h72.075v18.06h-24.601v62.47H104.49v-62.46zm50.567 22.206C155.057 17.381 173.789 0 199.308 0c14.83 0 26.786 5.404 34.6 15.183l-14.48 13.115c-5.06-6.093-11.268-9.429-18.962-9.429-13.224 0-22.415 9.2-22.415 23.015 0 13.816 9.191 23.015 22.415 23.015 7.705 0 13.913-3.336 18.962-9.43l14.48 13.116c-7.814 9.78-19.77 15.183-34.6 15.183-25.519 0-44.251-17.37-44.251-41.884zm171.614 18.749c0 13.695-10.12 21.516-30.229 21.516h-37.015V1.608h34.709c17.935 0 28.273 7.591 28.273 20.707 0 9.2-4.94 15.303-12.295 18.29 10.35 2.296 16.557 9.09 16.557 20.017v.01zM267.929 8.63v29.227h25.628c12.874 0 20.35-4.944 20.35-14.613 0-9.67-7.476-14.614-20.35-14.614h-25.628zm50.229 51.313c0-10.469-7.705-15.074-21.836-15.074h-28.393v30.256h28.393c14.142 0 21.836-4.605 21.836-15.182zm78.392.69h-44.83l-9.65 21.516h-8.852l36.775-80.541h8.393l36.787 80.53h-8.962l-9.65-21.516-.011.01zm-3.104-6.903l-19.311-43.262-19.311 43.263h38.622zM495.75 1.608v80.53h-7.016l-51.726-65.347v65.347h-8.503V1.608h7.017l51.846 65.347V1.608h8.393-.011zm51.136 42.682l-16.437 16.682v21.166h-8.503V1.608h8.503v48.666l47.245-48.666h9.77l-34.83 36.47 37.245 44.06h-10.12L546.886 44.29z" fill="#003257"/><path d="M399.337 184.207c55.07-37.553 119.932-63.871 190.499-75.182-76.457 5.142-147.79 27.675-209.548 63.401a432.146 432.146 0 0119.049 11.781z" fill="#98C900"/><path d="M367.895 165.447c51.092-28.911 109.025-48.502 170.805-56.433-67.9 2.385-132.544 18.782-190.346 46.457a461.028 461.028 0 0119.541 9.965v.011z" fill="#558E2F"/><path d="M336.136 149.805c45.802-21.123 96.096-35.201 149.112-40.78-59.562.777-116.599 12.23-168.915 32.477a487.049 487.049 0 0119.803 8.314v-.011z" fill="#98C900"/><path d="M390.911 190.201c-79.715-50.482-176.937-80.279-281.186-81.209 98.358 9.386 188.171 44.641 259.306 98.043a452.579 452.579 0 0121.88-16.834z" fill="#558E2F"/><path d="M358.638 215.841C275.885 151.664 168.86 112.405 53.267 108.992c110.959 12.985 210.586 59.178 283.393 127.49a409.426 409.426 0 0121.978-20.652v.011z" fill="#98C900"/><path d="M305.874 272c6.437-8.576 13.628-17.207 21.519-25.793C244.137 167.919 128.708 116.682 0 108.992 125.189 127.391 233.952 187.488 305.874 272z" fill="#558E2F"/><path d="M302.53 136.252c31.179-12.459 65.168-21.571 103.222-27.423H190.75c38.524 5.392 76.163 14.548 111.78 27.423z" fill="#003257"/></svg>
